# xmcd
#
# Track frame offsets:
#	150
#	18508
#	41645
#	61510
#	77813
#	92631
#	111385
#	130940
#	153226
#	173571
#	193134
#	213630
#	226973
#
# Disc length: 3239 seconds
#
# Revision: 0
# Processed by: cddbd v1.4PL0 Copyright (c) Steve Scherf et al.
# Submitted via: dBpowerAMP V4.0
#
DISCID=a70ca50d
DTITLE=Mariah Carey - Charmbracelet
DYEAR=1900
DGENRE=R&B
TTITLE0=The one
TTITLE1=Yours
TTITLE2=You got me (featuring Jay-Z and Freeway)
TTITLE3=I only wanted
TTITLE4=Clown
TTITLE5=My saving grace
TTITLE6=You had your chance
TTITLE7=Lullaby
TTITLE8=Irrestible (west side connection)
TTITLE9=Subtle invitation
TTITLE10=Bringin'on the heartbreak
TTITLE11=Sunflowefr for Alfred Roy
TTITLE12=Through the rain (remix) (feeaturing Kelly Price and Joe)
EXTD=
EXTT0=
EXTT1=
EXTT2=
EXTT3=
EXTT4=
EXTT5=
EXTT6=
EXTT7=
EXTT8=
EXTT9=
EXTT10=
EXTT11=
EXTT12=
PLAYORDER=
